/vscmnt/brussel_pixiu_data/_data_brussel/112/vsc11236/PredSimResults/SUBJ11opt3D/weighted-LRposFixed/trackIG/worker_02.mot
version=1
nRows=4
nColumns=50
inDegrees=yes
endheader
                time	         pelvis_tilt	         pelvis_list	     pelvis_rotation	           pelvis_tx	           pelvis_ty	           pelvis_tz	       hip_flexion_r	     hip_adduction_r	      hip_rotation_r	        knee_angle_r	       ankle_angle_r	         mtp_angle_r	       hip_flexion_l	     hip_adduction_l	      hip_rotation_l	        knee_angle_l	       ankle_angle_l	         mtp_angle_l	    lumbar_extension	      lumbar_bending	     lumbar_rotation	 ercspn_r/activation	 intobl_r/activation	 extobl_r/activation	    abd_r/activation	    add_r/activation	hamstrings_r/activation	bifemsh_r/activation	glut_max_r/activation	iliopsoas_r/activation	rect_fem_r/activation	  vasti_r/activation	gastroc_r/activation	 soleus_r/activation	tib_ant_r/activation	 ercspn_l/activation	 intobl_l/activation	 extobl_l/activation	    abd_l/activation	    add_l/activation	hamstrings_l/activation	bifemsh_l/activation	glut_max_l/activation	iliopsoas_l/activation	rect_fem_l/activation	  vasti_l/activation	gastroc_l/activation	 soleus_l/activation	tib_ant_l/activation	
          0.00000000	         -2.88494064	         -1.19761074	          6.19203731	          0.00000000	          0.94090515	         -0.00435894	         31.06064580	         -1.56262431	         -4.27194736	        -10.50838047	          1.42676988	          0.25665901	        -13.79959047	         -3.26777830	         -2.00341342	        -12.69297468	         12.32424510	         30.28421456	        -14.03652699	         -2.16977022	         -3.41622415	          0.02548684	          0.21576750	          0.06046508	          0.00999999	          0.23772457	          0.03342168	          0.10642459	          0.08538105	          0.09556343	          0.04020444	          0.01587624	          0.00999999	          0.00999999	          0.41443884	          0.00999999	          0.00999999	          0.00999999	          0.03544867	          0.04002745	          0.02006221	          0.22334303	          0.02403326	          0.19166448	          0.00999999	          0.00999999	          0.14099695	          0.31484646	          0.01234809	
          0.01408859	         -3.02044152	         -1.26509806	          6.24542385	          0.01906984	          0.93875409	         -0.00296291	         30.73631667	         -1.35851647	         -4.41454763	        -11.64087889	          0.95072067	          0.20989037	        -14.23008329	         -3.54968590	         -2.39465363	        -13.69366844	         11.47913503	         32.18290785	        -13.53702683	         -1.63877510	         -3.63226298	          0.02064030	          0.17473744	          0.04896712	          0.03473125	          0.19251918	          0.05261403	          0.08618703	          0.11274880	          0.07739122	          0.03255922	          0.01285724	          0.01234809	          0.01234809	          0.46464217	          0.01438332	          0.00999999	          0.00999999	          0.02870780	          0.03241588	          0.02770135	          0.18087242	          0.01946313	          0.15521782	          0.00999999	          0.00999999	          0.11418516	          0.29077051	          0.00999999	
          0.02817717	         -3.13515211	         -1.33268775	          6.27147791	          0.03838856	          0.93700006	         -0.00148410	         30.36825331	         -1.17122522	         -4.60363525	        -12.74388145	          0.28418171	          0.20180400	        -14.46001895	         -3.84625353	         -2.79781099	        -15.08050281	         10.45091938	         34.17292470	        -13.02256581	         -1.10393835	         -3.83649303	          0.02569383	          0.14150960	          0.03965560	          0.08119962	          0.23084249	          0.04833690	          0.06979782	          0.12445419	          0.06267461	          0.02636780	          0.01318955	          0.00999999	          0.00999999	          0.53647507	          0.02574559	          0.00999999	          0.00999999	          0.02324876	          0.02625172	          0.02243370	          0.14647797	          0.01576205	          0.13466104	          0.00999999	          0.00999999	          0.09247186	          0.26362717	          0.00999999	
          0.04226576	         -3.22885620	         -1.38933692	          6.26666026	          0.05763813	          0.93582649	          0.00008090	         30.09474591	         -1.01081886	         -4.86364362	        -14.01189427	         -0.44195134	          0.15983905	        -14.40103712	         -4.14866961	         -3.20686916	        -16.96256289	          9.20599932	         36.22296241	        -12.53152000	         -0.57976146	         -4.02319011	          0.03165327	          0.11460033	          0.03211474	          0.11429857	          0.27010048	          0.05458497	          0.05652516	          0.10670635	          0.05075649	          0.02135373	          0.09527192	          0.00999999	          0.00999999	          0.59112987	          0.05374885	          0.00999999	          0.00999999	          0.01882781	          0.07317499	          0.02825693	          0.11862391	          0.01276476	          0.10905408	          0.00999999	          0.00999999	          0.07488754	          0.22316703	          0.00999999	
